PathFileType	4	(x/y/z)	S05_P20_T18
DataRate	CameraRate	NumFrames	NumMarkers	Units	OrigDataRate	OrigDataStartFrame	OrigNumFrames
240	240	9	50	mm	240	88	351
Frame#	Time	Sternum			R.Acromium			L.Acromium			Top.Head			R.ASIS			L.ASIS			R.PSIS			L.PSIS			R.Great.Tro			L.Great.Tro			R.Iliac.Crest			L.Iliac.Crest			V.Sacral			R.Thigh.Upper.Post			R.Thigh.Lower.Ant			R.Thigh.Lower.Post			R.Thigh.Upper.Ant			R.Knee.Lat			R.Knee.Med			R.Shank.Upper.Post			R.Shank.Lower.Ant			R.Shank.Lower.Post			R.Shank.Upper.Ant			R.Ankle.Lat			R.Ankle.Med			R.Heel.Upper			R.Heel.Med			R.Heel.Lat			R.Toe.Lat			R.Toe.Med			R.Toe.Tip			L.Thigh.Upper.Post			L.Thigh.Lower.Ant			L.Thigh.Lower.Post			L.Thigh.Upper.Ant			L.Knee.Lat			L.Shank.Upper.Post			L.Shank.Lower.Ant			L.Shank.Lower.Post			L.Shank.Upper.Ant			L.Ankle.Lat			L.Ankle.Med			L.Heel.Upper			L.Heel.Med			L.Heel.Lat			L.Toe.Lat			L.Toe.Med			L.Toe.Tip			Cervical.Spine			Back			
		X1	Y1	Z1	X2	Y2	Z2	X3	Y3	Z3	X4	Y4	Z4	X5	Y5	Z5	X6	Y6	Z6	X7	Y7	Z7	X8	Y8	Z8	X9	Y9	Z9	X10	Y10	Z10	X11	Y11	Z11	X12	Y12	Z12	X13	Y13	Z13	X14	Y14	Z14	X15	Y15	Z15	X16	Y16	Z16	X17	Y17	Z17	X18	Y18	Z18	X19	Y19	Z19	X20	Y20	Z20	X21	Y21	Z21	X22	Y22	Z22	X23	Y23	Z23	X24	Y24	Z24	X25	Y25	Z25	X26	Y26	Z26	X27	Y27	Z27	X28	Y28	Z28	X29	Y29	Z29	X30	Y30	Z30	X31	Y31	Z31	X32	Y32	Z32	X33	Y33	Z33	X34	Y34	Z34	X35	Y35	Z35	X36	Y36	Z36	X37	Y37	Z37	X38	Y38	Z38	X39	Y39	Z39	X40	Y40	Z40	X41	Y41	Z41	X42	Y42	Z42	X43	Y43	Z43	X44	Y44	Z44	X45	Y45	Z45	X46	Y46	Z46	X47	Y47	Z47	X48	Y48	Z48	X49	Y49	Z49	X50	Y50	Z50	

88	0.3625	-915.3	1267	291.67	-997.75	1541.2	435.22	-1007.4	1549.8	116.63	-994.06	1833.6	263.88	-1001.3	1017.5	416.93	-994.27	1021.7	168.18	-1203.7	1039.6	331.82	-1203.5	1047.1	239.51	-1076.6	938.2	483.03	-1091.5	946.38	96.013	-1089.5	1103.2	456.28	-1081.8	1101.6	122.85	-1214.3	1007.7	296.97	-940.87	739.73	477.15	-869.89	692.31	420.81	-921.6	653.79	455.17	-894.06	776.18	441.32	-904.64	559.09	434.86	-893.78	550.98	303.77	-980.37	320.78	410.02	-918.83	256.06	414.05	-978.51	246.13	392.49	-919.37	332.22	430.83	-931.88	151.86	393.9	-914.12	180.63	308.9	-991.64	96.405	322.48	-973.24	67.908	295.23	-985.24	67.021	358.83	-830.79	68.343	433.86	-780.74	85.913	323.54	-728.13	111.09	376.8	-1110.1	707.31	109.57	-1034.8	628.14	130.44	-1106.4	613.41	127.7	-1031.2	717.28	110.31	-1104.8	520.27	137.59	-1193.9	327.65	148.11	-1132.6	262.2	150.65	-1204.1	257.67	168.67	-1127.4	331.48	135.56	-1189.1	117.06	180.9	-1152.6	132.15	265.7	-1249.4	71.407	238.26	-1236.8	45.414	269.14	-1250.8	45.843	208.61	-1073	39.258	139.17	-1040.4	48.457	257	-980.52	56.352	197.13	-1052	1577.4	281.21	-1185.4	1308.6	284.8
89	0.36667	-909.7	1266.5	291.63	-992.17	1540.6	435.38	-1001.7	1549.4	116.82	-988.47	1833.1	264.52	-995.48	1017	416.81	-988.64	1021.4	168.07	-1197.9	1039.2	332.03	-1197.9	1046.8	239.8	-1070.9	937.64	483	-1086.4	946.16	96.099	-1083.5	1102.7	456.31	-1076.4	1101.3	122.92	-1208.7	1007.4	297.21	-936.1	738.4	476.72	-865.61	690.62	420.07	-917.32	652.37	454.72	-889.31	774.61	440.64	-900.06	557.99	434.17	-889.81	549.56	302.92	-969.42	317.77	410.37	-906	254.96	414.68	-965.39	243.15	393.08	-908.72	331.12	431.23	-915.71	150.03	394.84	-898.95	179.01	309.78	-973.88	92.509	323.67	-954.52	64.483	296.49	-966.56	63.444	360.1	-812.01	69.56	434.93	-762.84	88.191	324.77	-710.7	115.19	377.73	-1106.6	707.33	109.63	-1031.8	627.72	130.56	-1103.4	613.4	127.78	-1027.6	716.81	110.38	-1102.6	520.16	137.73	-1192.7	327.93	148.37	-1131.7	262.21	150.82	-1203.2	257.99	168.95	-1126.2	331.44	135.72	-1188.8	117.25	181.16	-1152.1	132.18	265.96	-1249.2	71.554	238.57	-1236.6	45.478	269.39	-1250.7	46.051	208.88	-1073	39.291	139.21	-1040.2	48.28	257.02	-980.38	56.051	197.15	-1046.3	1576.9	281.38	-1179.8	1308.1	284.86
90	0.37083	-904.1	1265.9	291.6	-986.58	1539.9	435.55	-996.09	1549	117.02	-982.9	1832.5	265.18	-989.64	1016.4	416.69	-982.93	1021	167.97	-1192	1038.8	332.25	-1192.2	1046.5	240.1	-1065.2	937.01	482.96	-1081.3	945.91	96.18	-1077.5	1102.1	456.35	-1071	1100.9	123	-1203.1	1007.1	297.47	-931.38	736.98	476.31	-861.41	688.8	419.33	-913.09	650.83	454.31	-884.62	772.93	439.95	-895.55	556.79	433.5	-885.9	548.04	302.07	-958.54	314.9	410.77	-893.29	254.02	415.35	-952.36	240.36	393.69	-898.18	330.11	431.65	-899.69	148.44	395.79	-883.95	177.61	310.69	-956.26	88.952	324.89	-936	61.414	297.76	-948.05	60.222	361.38	-793.52	71.005	435.99	-745.27	90.669	325.96	-693.61	119.43	378.61	-1103.1	707.33	109.69	-1028.7	627.27	130.68	-1100.4	613.38	127.85	-1024.1	716.32	110.45	-1100.5	520.03	137.87	-1191.5	328.21	148.64	-1130.8	262.21	150.99	-1202.4	258.31	169.24	-1125	331.4	135.87	-1188.5	117.46	181.42	-1151.6	132.22	266.22	-1249	71.713	238.9	-1236.4	45.553	269.66	-1250.6	46.261	209.17	-1073	39.322	139.26	-1040	48.104	257.05	-980.24	55.748	197.17	-1040.5	1576.4	281.56	-1174.1	1307.6	284.94
91	0.375	-898.5	1265.3	291.58	-980.99	1539.2	435.74	-990.43	1548.5	117.24	-977.35	1831.9	265.84	-983.79	1015.7	416.59	-977.15	1020.7	167.88	-1186.1	1038.3	332.47	-1186.4	1046.2	240.42	-1059.5	936.29	482.92	-1076.2	945.62	96.254	-1071.4	1101.4	456.39	-1065.6	1100.5	123.09	-1197.5	1006.7	297.73	-926.69	735.47	475.92	-857.28	686.88	418.6	-908.91	649.2	453.94	-879.98	771.15	439.24	-891.07	555.52	432.88	-882.04	546.41	301.23	-947.73	312.15	411.21	-880.73	253.24	416.05	-939.44	237.74	394.32	-887.76	329.2	432.08	-883.87	147.09	396.76	-869.13	176.42	311.61	-938.83	85.734	326.12	-917.72	58.696	299.03	-929.76	57.349	362.67	-775.33	72.66	437	-728.04	93.331	327.09	-676.9	123.78	379.44	-1099.5	707.3	109.73	-1025.6	626.81	130.79	-1097.3	613.33	127.92	-1020.5	715.82	110.5	-1098.2	519.88	138	-1190.3	328.48	148.91	-1129.8	262.21	151.16	-1201.5	258.64	169.52	-1123.7	331.34	136.02	-1188.2	117.67	181.69	-1151.1	132.26	266.48	-1248.8	71.883	239.25	-1236.2	45.637	269.94	-1250.5	46.473	209.48	-1073	39.353	139.31	-1039.8	47.931	257.07	-980.1	55.443	197.19	-1034.8	1575.8	281.77	-1168.4	1307	285.04
92	0.37917	-892.9	1264.6	291.56	-975.4	1538.4	435.95	-984.77	1547.9	117.47	-971.81	1831.3	266.53	-977.92	1015	416.49	-971.29	1020.3	167.81	-1180.2	1037.8	332.7	-1180.6	1045.8	240.76	-1053.8	935.5	482.87	-1071.1	945.31	96.324	-1065.3	1100.6	456.43	-1060.2	1100	123.2	-1191.8	1006.3	298	-922.02	733.89	475.55	-853.19	684.86	417.87	-904.76	647.49	453.62	-875.38	769.29	438.53	-886.61	554.19	432.29	-878.21	544.71	300.41	-937.02	309.55	411.69	-868.34	252.6	416.78	-926.67	235.31	394.98	-877.47	328.38	432.52	-868.26	145.98	397.72	-854.53	175.43	312.54	-921.61	82.847	327.36	-899.72	56.319	300.3	-911.72	54.816	363.97	-757.49	74.506	437.98	-711.19	96.158	328.17	-660.58	128.22	380.22	-1095.9	707.25	109.77	-1022.5	626.33	130.89	-1094.2	613.26	127.98	-1016.8	715.29	110.55	-1095.9	519.71	138.13	-1189	328.76	149.18	-1128.8	262.2	151.34	-1200.5	258.98	169.8	-1122.4	331.27	136.17	-1187.9	117.89	181.97	-1150.5	132.3	266.74	-1248.6	72.065	239.61	-1236	45.731	270.24	-1250.3	46.689	209.8	-1072.9	39.382	139.37	-1039.6	47.762	257.1	-979.97	55.139	197.2	-1029.1	1575.1	282	-1162.7	1306.3	285.16
93	0.38333	-887.29	1263.9	291.56	-969.8	1537.6	436.17	-979.11	1547.4	117.73	-966.28	1830.6	267.22	-972.04	1014.2	416.4	-965.34	1020	167.74	-1174.3	1037.2	332.94	-1174.7	1045.3	241.11	-1048	934.63	482.81	-1066	944.96	96.389	-1059.2	1099.8	456.48	-1054.8	1099.5	123.31	-1186.2	1005.9	298.27	-917.36	732.25	475.21	-849.15	682.76	417.15	-900.63	645.71	453.35	-870.81	767.35	437.8	-882.16	552.81	431.75	-874.39	542.95	299.6	-926.43	307.08	412.19	-856.14	252.1	417.52	-914.06	233.06	395.65	-867.33	327.65	432.96	-852.92	145.08	398.68	-840.19	174.65	313.46	-904.67	80.282	328.6	-882.04	54.27	301.55	-893.99	52.61	365.25	-740.03	76.521	438.91	-694.74	99.132	329.18	-644.68	132.73	380.93	-1092.2	707.16	109.8	-1019.2	625.83	131	-1091	613.16	128.04	-1013.1	714.74	110.59	-1093.5	519.53	138.26	-1187.7	329.03	149.46	-1127.8	262.18	151.51	-1199.5	259.32	170.08	-1121	331.19	136.33	-1187.7	118.12	182.25	-1150	132.35	267	-1248.4	72.26	239.98	-1235.8	45.837	270.54	-1250.2	46.912	210.13	-1072.9	39.411	139.42	-1039.4	47.595	257.13	-979.83	54.837	197.22	-1023.4	1574.4	282.25	-1157	1305.6	285.29
94	0.3875	-881.68	1263.1	291.58	-964.2	1536.7	436.42	-973.45	1546.8	118.01	-960.77	1829.8	267.92	-966.15	1013.4	416.32	-959.32	1019.6	167.68	-1168.4	1036.6	333.19	-1168.7	1044.8	241.48	-1042.2	933.7	482.76	-1060.9	944.57	96.451	-1053.1	1098.9	456.54	-1049.4	1098.9	123.43	-1180.5	1005.3	298.56	-912.69	730.56	474.89	-845.12	680.6	416.45	-896.49	643.88	453.13	-866.27	765.36	437.07	-877.71	551.39	431.25	-870.55	541.13	298.82	-915.96	304.76	412.72	-844.15	251.74	418.28	-901.65	230.99	396.33	-857.34	327.01	433.4	-837.86	144.39	399.62	-826.12	174.04	314.38	-888.04	78.023	329.83	-864.73	52.53	302.77	-876.6	50.712	366.51	-722.98	78.678	439.79	-678.69	102.23	330.09	-629.21	137.26	381.58	-1088.4	707.04	109.82	-1015.9	625.32	131.1	-1087.7	613.04	128.1	-1009.3	714.17	110.62	-1091	519.33	138.39	-1186.3	329.31	149.74	-1126.7	262.16	151.68	-1198.5	259.67	170.35	-1119.6	331.1	136.47	-1187.3	118.35	182.54	-1149.5	132.39	267.25	-1248.2	72.471	240.35	-1235.6	45.957	270.86	-1250.1	47.144	210.47	-1072.9	39.439	139.48	-1039.2	47.433	257.16	-979.7	54.538	197.23	-1017.7	1573.7	282.52	-1151.2	1304.8	285.44
95	0.39167	-876.06	1262.3	291.6	-958.6	1535.7	436.68	-967.8	1546.1	118.3	-955.26	1829	268.63	-960.26	1012.5	416.26	-953.22	1019.3	167.64	-1162.4	1035.9	333.45	-1162.7	1044.2	241.86	-1036.4	932.69	482.7	-1055.7	944.16	96.509	-1047	1097.9	456.61	-1044	1098.4	123.56	-1174.8	1004.8	298.85	-908.01	728.84	474.61	-841.09	678.41	415.76	-892.33	642.01	452.96	-861.73	763.34	436.34	-873.23	549.94	430.8	-866.68	539.28	298.07	-905.63	302.58	413.28	-832.38	251.49	419.04	-889.45	229.1	397.02	-847.52	326.44	433.83	-823.14	143.88	400.55	-812.37	173.61	315.28	-871.76	76.052	331.03	-847.84	51.077	303.97	-859.6	49.1	367.75	-706.39	80.951	440.62	-663.08	105.43	330.91	-614.21	141.8	382.16	-1084.6	706.89	109.83	-1012.6	624.78	131.19	-1084.4	612.89	128.15	-1005.5	713.58	110.65	-1088.4	519.1	138.51	-1184.9	329.58	150.01	-1125.6	262.13	151.85	-1197.4	260.03	170.62	-1118.1	331	136.62	-1187	118.6	182.83	-1148.9	132.45	267.51	-1248.1	72.698	240.74	-1235.4	46.093	271.18	-1250	47.389	210.81	-1072.9	39.466	139.55	-1039	47.274	257.19	-979.56	54.244	197.23	-1012.1	1572.9	282.81	-1145.4	1304	285.6
96	0.39583	-870.44	1261.5	291.64	-952.99	1534.8	436.97	-962.15	1545.4	118.62	-949.75	1828.1	269.36	-954.37	1011.5	416.21	-947.07	1018.9	167.61	-1156.5	1035.2	333.71	-1156.7	1043.5	242.26	-1030.5	931.62	482.65	-1050.5	943.71	96.566	-1040.9	1096.9	456.69	-1038.5	1097.7	123.7	-1169.1	1004.1	299.14	-903.29	727.09	474.36	-837.05	676.2	415.09	-888.13	640.13	452.82	-857.18	761.29	435.62	-868.72	548.48	430.39	-862.75	537.42	297.36	-895.47	300.55	413.85	-820.87	251.35	419.8	-877.49	227.37	397.71	-837.88	325.94	434.24	-808.78	143.55	401.44	-798.96	173.32	316.15	-855.89	74.346	332.21	-831.39	49.884	305.12	-843.03	47.749	368.95	-690.27	83.307	441.38	-647.92	108.7	331.6	-599.68	146.29	382.66	-1080.7	706.71	109.84	-1009.1	624.23	131.28	-1080.9	612.71	128.2	-1001.6	712.97	110.68	-1085.8	518.86	138.63	-1183.4	329.85	150.28	-1124.5	262.09	152.02	-1196.3	260.39	170.88	-1116.6	330.88	136.77	-1186.7	118.86	183.11	-1148.4	132.51	267.76	-1247.9	72.946	241.12	-1235.2	46.249	271.51	-1249.9	47.649	211.16	-1072.9	39.491	139.61	-1038.8	47.119	257.22	-979.43	53.953	197.24	-1006.4	1572.1	283.12	-1139.6	1303.1	285.78
